<svg width="64" height="64" viewBox="0 0 64 64" fill="none" xmlns="http://www.w3.org/2000/svg">
<path d="M58.5211 32.4437H32.1412L50.8101 13.7748L51.8247 14.7895L54.2597 18.0362L55.8831 21.283L57.5065 25.3414L58.5211 29.6028L58.5211 32.4437Z" fill="#CF5904"/>
<path d="M50.7946 50.7946L32.1413 32.1412H58.543V33.5761L57.969 37.5938L56.8211 41.0375L55.0993 45.0551L52.8035 48.7858L50.7946 50.7946Z" fill="#001895"/>
<path d="M32.1303 58.5211L32.1303 32.1412L50.7991 50.8101L49.7845 51.8247L46.5378 54.2597L43.291 55.8831L39.2326 57.5065L34.9712 58.5211L32.1303 58.5211Z" fill="#CA9E03"/>
<path d="M13.2009 50.7946L31.8542 32.1412V58.5429H30.4194L26.4017 57.969L22.958 56.8211L18.9404 55.0992L15.2097 52.8034L13.2009 50.7946Z" fill="#FEFEFE"/>
<path d="M5.4789 32.1303L31.8588 32.1303L13.1899 50.7991L12.1753 49.7845L9.74027 46.5378L8.11689 43.291L6.49351 39.2326L5.4789 34.9712L5.4789 32.1303Z" fill="#161616"/>
<path d="M13.4879 13.7748L32.1413 32.4282H5.73956V30.9933L6.31351 26.9757L7.46141 23.532L9.18327 19.5143L11.4791 15.7836L13.4879 13.7748Z" fill="#8B0000"/>
<path d="M32.4437 5.4789V31.8588L13.7748 13.1899L14.7895 12.1753L18.0362 9.74027L21.283 8.11689L25.3414 6.49351L29.6028 5.4789L32.4437 5.4789Z" fill="#09740D"/>
<path d="M50.7946 13.4879L32.1412 32.1413V5.73953H33.5761L37.5938 6.31348L41.0375 7.46138L45.0551 9.18323L48.7858 11.479L50.7946 13.4879Z" fill="#5700AF" stroke="black"/>
<path d="M58.043 32.1412C58.043 46.4464 46.4464 58.043 32.1413 58.043V59.043C46.9987 59.043 59.043 46.9987 59.043 32.1412H58.043ZM32.1413 58.043C17.8362 58.043 6.23956 46.4464 6.23956 32.1412H5.23956C5.23956 46.9987 17.2839 59.043 32.1413 59.043V58.043ZM6.23956 32.1412C6.23956 17.8361 17.8362 6.23953 32.1413 6.23953V5.23953C17.2839 5.23953 5.23956 17.2838 5.23956 32.1412H6.23956ZM32.1413 6.23953C46.4464 6.23953 58.043 17.8361 58.043 32.1412H59.043C59.043 17.2838 46.9987 5.23953 32.1413 5.23953V6.23953ZM31.6413 5.73953V32.1412H32.6413V5.73953H31.6413ZM31.6413 32.1412V58.543H32.6413V32.1412H31.6413ZM32.1413 31.6412H5.73956V32.6412H32.1413V31.6412ZM32.1413 32.6412H58.543V31.6412H32.1413V32.6412ZM32.4948 32.4948L51.1482 13.8414L50.4411 13.1343L31.7877 31.7877L32.4948 32.4948ZM31.7877 31.7877L13.1343 50.4411L13.8414 51.1482L32.4948 32.4948L31.7877 31.7877ZM32.4948 31.7877L13.8414 13.1343L13.1343 13.8414L31.7877 32.4948L32.4948 31.7877ZM31.7877 32.4948L50.4411 51.1482L51.1482 50.4411L32.4948 31.7877L31.7877 32.4948Z" fill="black"/>
</svg>
